<?xml version="1.0" encoding="UTF-8"?>
<svg width="256" height="256" viewBox="0 0 256 256" fill="none" xmlns="http://www.w3.org/2000/svg">
  <rect width="256" height="256" rx="32" fill="#EE0612"/>
  <path d="M128 64C154.5 64 176 85.5 176 112C176 138.5 154.5 160 128 160C101.5 160 80 138.5 80 112C80 85.5 101.5 64 128 64ZM128 80C110.3 80 96 94.3 96 112C96 129.7 110.3 144 128 144C145.7 144 160 129.7 160 112C160 94.3 145.7 80 128 80Z" fill="white"/>
  <path d="M128 176C168.9 176 192 186.7 192 192V208H64V192C64 186.7 87.1 176 128 176Z" fill="white"/>
</svg>
