<?xml version="1.0" encoding="UTF-8"?>
<svg width="256" height="256" viewBox="0 0 256 256" fill="none" xmlns="http://www.w3.org/2000/svg">
  <path d="M88 32C74.7 32 64 42.7 64 56C64 69.3 74.7 80 88 80H112V56C112 42.7 101.3 32 88 32Z" fill="#36C5F0"/>
  <path d="M168 80C181.3 80 192 69.3 192 56C192 42.7 181.3 32 168 32C154.7 32 144 42.7 144 56V80H168Z" fill="#2EB67D"/>
  <path d="M168 176C154.7 176 144 186.7 144 200C144 213.3 154.7 224 168 224C181.3 224 192 213.3 192 200V176H168Z" fill="#ECB22E"/>
  <path d="M88 176H64V200C64 213.3 74.7 224 88 224C101.3 224 112 213.3 112 200C112 186.7 101.3 176 88 176Z" fill="#E01E5A"/>
  <path d="M176 88C176 74.7 186.7 64 200 64C213.3 64 224 74.7 224 88C224 101.3 213.3 112 200 112H176V88Z" fill="#36C5F0"/>
  <path d="M32 88C32 101.3 42.7 112 56 112C69.3 112 80 101.3 80 88V64H56C42.7 64 32 74.7 32 88Z" fill="#2EB67D"/>
  <path d="M80 168C80 181.3 69.3 192 56 192C42.7 192 32 181.3 32 168C32 154.7 42.7 144 56 144H80V168Z" fill="#ECB22E"/>
  <path d="M224 168C224 154.7 213.3 144 200 144C186.7 144 176 154.7 176 168V192H200C213.3 192 224 181.3 224 168Z" fill="#E01E5A"/>
</svg>
